<svg aria-hidden="true" style="position: absolute; width: 0; height: 0; overflow: hidden;" version="1.1" xmlns="http://www.w3.org/2000/svg" xmlns:xlink="http://www.w3.org/1999/xlink">
<defs>
<symbol id="icon-burger" viewBox="0 0 32 32">
<path stroke-linejoin="round" stroke-linecap="round" stroke-miterlimit="4" stroke-width="1.5" d="M5.333 10.667h21.333M5.333 21.333h21.333"></path>
</symbol>
<symbol id="icon-burgerclose" viewBox="0 0 32 32">
<path stroke-linejoin="round" stroke-linecap="round" stroke-miterlimit="4" stroke-width="1.5" d="M26 6l-20 20M6 6l20 20"></path>
</symbol>
<symbol id="icon-close" viewBox="0 0 32 32">
<path fill="none" stroke="#fff" style="stroke: var(--color1, #fff)" stroke-linejoin="round" stroke-linecap="round" stroke-miterlimit="4" stroke-width="2" d="M24 8l-16 16M8 8l16 16"></path>
</symbol>
<symbol id="icon-location" viewBox="0 0 32 32">
<path fill="#fff" style="fill: var(--color1, #fff)" d="M24.485 6.181c2.203 2.203 3.463 5.176 3.514 8.291s-1.113 6.128-3.243 8.401l-0.271 0.28-5.657 5.656c-0.718 0.717-1.682 1.135-2.696 1.169s-2.003-0.32-2.767-0.989l-0.192-0.18-5.659-5.657c-2.25-2.25-3.515-5.303-3.515-8.485s1.264-6.235 3.515-8.485 5.303-3.515 8.485-3.515c3.183 0 6.235 1.264 8.485 3.515zM16 10.667c-0.525 0-1.045 0.103-1.531 0.304s-0.926 0.496-1.298 0.867c-0.371 0.371-0.666 0.812-0.867 1.298s-0.304 1.005-0.304 1.531c0 0.525 0.103 1.045 0.304 1.531s0.496 0.926 0.867 1.298 0.812 0.666 1.298 0.867c0.485 0.201 1.005 0.305 1.531 0.305 1.061 0 2.078-0.421 2.828-1.172s1.172-1.768 1.172-2.828c0-1.061-0.421-2.078-1.172-2.828s-1.768-1.172-2.828-1.172z"></path>
</symbol>
<symbol id="icon-mail" viewBox="0 0 32 32">
<path fill="#fff" style="fill: var(--color1, #fff)" d="M29.333 10.047v12.62c0 1.020-0.39 2.002-1.090 2.744s-1.657 1.189-2.676 1.249l-0.235 0.007h-18.667c-1.020 0-2.002-0.39-2.744-1.090s-1.189-1.657-1.249-2.676l-0.007-0.235v-12.62l12.593 8.396 0.155 0.088c0.182 0.089 0.382 0.135 0.585 0.135s0.403-0.046 0.585-0.135l0.155-0.088 12.593-8.396z"></path>
<path fill="#fff" style="fill: var(--color1, #fff)" d="M25.333 5.333c1.44 0 2.703 0.76 3.407 1.903l-12.74 8.493-12.74-8.493c0.334-0.543 0.794-0.998 1.34-1.327s1.163-0.523 1.799-0.566l0.268-0.009h18.667z"></path>
<path fill="none" stroke="#fff" style="stroke: var(--color1, #fff)" stroke-linejoin="miter" stroke-linecap="butt" stroke-miterlimit="4" stroke-width="1.3333" d="M29.333 10.047v12.62c0 1.020-0.39 2.002-1.090 2.744s-1.657 1.189-2.676 1.249l-0.235 0.007h-18.667c-1.020 0-2.002-0.39-2.744-1.090s-1.189-1.657-1.249-2.676l-0.007-0.235v-12.62l12.593 8.396 0.155 0.088c0.182 0.089 0.382 0.135 0.585 0.135s0.403-0.046 0.585-0.135l0.155-0.088 12.593-8.396z"></path>
<path fill="none" stroke="#fff" style="stroke: var(--color1, #fff)" stroke-linejoin="miter" stroke-linecap="butt" stroke-miterlimit="4" stroke-width="1.3333" d="M25.333 5.333c1.44 0 2.703 0.76 3.407 1.903l-12.74 8.493-12.74-8.493c0.334-0.543 0.794-0.998 1.34-1.327s1.163-0.523 1.799-0.566l0.268-0.009h18.667z"></path>
</symbol>
<symbol id="icon-phonemini" viewBox="0 0 32 32">
<path fill="#fff" style="fill: var(--color1, #fff)" d="M20.743 19.875l-0.607 0.604c0 0-1.444 1.435-5.384-2.483s-2.496-5.352-2.496-5.352l0.381-0.381c0.943-0.936 1.032-2.44 0.209-3.539l-1.68-2.244c-1.019-1.36-2.985-1.54-4.152-0.38l-2.093 2.080c-0.577 0.576-0.964 1.32-0.917 2.147 0.12 2.116 1.077 6.667 6.416 11.976 5.663 5.629 10.976 5.853 13.148 5.651 0.688-0.064 1.285-0.413 1.767-0.893l1.893-1.883c1.28-1.271 0.92-3.451-0.717-4.34l-2.547-1.385c-1.075-0.583-2.381-0.412-3.221 0.423z"></path>
</symbol>
<symbol id="icon-play_mini" viewBox="0 0 32 32">
<path fill="#fff" style="fill: var(--color1, #fff)" d="M9.333 5.333v21.333l17.333-10.667-17.333-10.667z"></path>
</symbol>
<symbol id="icon-schevron_left_mini" viewBox="0 0 32 32">
<path fill="none" stroke="#fff" style="stroke: var(--color1, #fff)" stroke-linejoin="round" stroke-linecap="round" stroke-miterlimit="4" stroke-width="2.6667" d="M20 8l-8 8 8 8"></path>
</symbol>
<symbol id="icon-schevron_right_mini" viewBox="0 0 32 32">
<path fill="none" stroke="#fff" style="stroke: var(--color1, #fff)" stroke-linejoin="round" stroke-linecap="round" stroke-miterlimit="4" stroke-width="2.6667" d="M12 8l8 8-8 8"></path>
</symbol>
</defs>
</svg>
