<svg width="24" height="24" viewBox="0 0 24 24" fill="none" xmlns="http://www.w3.org/2000/svg">
<path d="M18.3641 4.63599C20.0164 6.28813 20.9614 8.51811 20.9993 10.8544C21.0372 13.1907 20.1649 15.4502 18.5671 17.155L18.3641 17.365L14.1211 21.607C13.5827 22.145 12.8599 22.4583 12.0992 22.4834C11.3385 22.5084 10.5967 22.2434 10.0241 21.742L9.88006 21.607L5.63606 17.364C3.94822 15.6762 3 13.387 3 11C3 8.61303 3.94822 6.32383 5.63606 4.63599C7.32389 2.94816 9.61309 1.99994 12.0001 1.99994C14.387 1.99994 16.6762 2.94816 18.3641 4.63599ZM12.0001 7.99999C11.6061 7.99999 11.216 8.07759 10.852 8.22836C10.488 8.37912 10.1573 8.6001 9.87873 8.87867C9.60016 9.15725 9.37918 9.48797 9.22842 9.85194C9.07765 10.2159 9.00006 10.606 9.00006 11C9.00006 11.394 9.07765 11.7841 9.22842 12.148C9.37918 12.512 9.60016 12.8427 9.87873 13.1213C10.1573 13.3999 10.488 13.6209 10.852 13.7716C11.216 13.9224 11.6061 14 12.0001 14C12.7957 14 13.5588 13.6839 14.1214 13.1213C14.684 12.5587 15.0001 11.7956 15.0001 11C15.0001 10.2043 14.684 9.44128 14.1214 8.87867C13.5588 8.31606 12.7957 7.99999 12.0001 7.99999Z" fill="white"/>
</svg>
